<svg xmlns="http://www.w3.org/2000/svg" width="1024" height="1024" viewBox="0 0 1024 1024" xmlns:c2pa="http://c2pa.org/manifest"><metadata><c2pa:manifest>AAAWgmp1bWIAAAAeanVtZGMycGEAEQAQgAAAqgA4m3EDYzJwYQAAABZcanVtYgAAAEdqdW1kYzJtYQARABCAAACqADibcQN1cm46YzJwYTo3NzQzNWUxZi03NGRmLTRiMTAtODExYS1jZDIwNzcyZjYzOTcAAAADl2p1bWIAAAApanVtZGMyYXMAEQAQgAAAqgA4m3EDYzJwYS5hc3NlcnRpb25zAAAAALxqdW1iAAAARGp1bWRjYm9yABEAEIAAAKoAOJtxE2MycGEuaW5ncmVkaWVudC52MwAAAAAYYzJzaL4LwUNUz/+UPYxudG17RwQAAABwY2JvcqNpZGM6Zm9ybWF0bWltYWdlL3N2Zyt4bWxqaW5zdGFuY2VJRHgseG1wOmlpZDo3OWFjMTExMS02MzUwLTQ0MjEtOWY1MC03ZGIxNjk0YmNjYmVscmVsYXRpb25zaGlwaHBhcmVudE9mAAAB4mp1bWIAAABBanVtZGNib3IAEQAQgAAAqgA4m3ETYzJwYS5hY3Rpb25zLnYyAAAAABhjMnNo7BClR+Z0+9w/9ftD4MpvZwAAAZljYm9yomdhY3Rpb25zgqJmYWN0aW9ua2MycGEub3BlbmVkanBhcmFtZXRlcnOha2luZ3JlZGllbnRzgaJjdXJseC1zZWxmI2p1bWJmPWMycGEuYXNzZXJ0aW9ucy9jMnBhLmluZ3JlZGllbnQudjNkaGFzaFggBgkaZat85iz23GiCVQ6BypRleFxmA6VSylQaufYDL1ekZmFjdGlvbngdY29tLmFudGhyb3BpYy5jbGF1ZGUucHJvdmlkZWRqcGFyYW1ldGVyc6F4H2NvbS5hbnRocm9waWMub3JpZ2luLWNvbmZpZGVuY2VndW5rbm93bmtkZXNjcmlwdGlvbnhmQ2xhdWRlIHByb3ZpZGVkIHRoaXMgZmlsZSBhdCB0aGUgcmVxdWVzdCBvZiBhIHVzZXIgYW5kIG1heSBoYXZlIGNyZWF0ZWQgb3IgbW9kaWZpZWQgdGhlIGZpbGUgY29udGVudHMubXNvZnR3YXJlQWdlbnShZG5hbWVmQ2xhdWRlcmFsbEFjdGlvbnNJbmNsdWRlZPUAAADIanVtYgAAAEBqdW1kY2JvcgARABCAAACqADibcRNjMnBhLmhhc2guZGF0YQAAAAAYYzJzaA7r4XE/6m14oo+0ZRFb+okAAACAY2JvcqVjYWxnZnNoYTI1NmNwYWRNAAAAAAAAAAAAAAAAAGRoYXNoWCBz5iBWsBmp8yAXtT1W6j/E6crO9tVdq79D2pRazAFwx2RuYW1lbmp1bWJmIG1hbmlmZXN0amV4Y2x1c2lvbnOBomVzdGFydBiaZmxlbmd0aBkeBAAAAj5qdW1iAAAAJ2p1bWRjMmNsABEAEIAAAKoAOJtxA2MycGEuY2xhaW0udjIAAAACD2Nib3KlY2FsZ2ZzaGEyNTZpc2lnbmF0dXJleE1zZWxmI2p1bWJmPS9jMnBhL3VybjpjMnBhOjc3NDM1ZTFmLTc0ZGYtNGIxMC04MTFhLWNkMjA3NzJmNjM5Ny9jMnBhLnNpZ25hdHVyZWppbnN0YW5jZUlEeCx4bXA6aWlkOjRkNWY5YWYwLTUwYmItNDBhZC1iZjJmLTQyNDM2Y2I5ZGVmYXJjcmVhdGVkX2Fzc2VydGlvbnODomN1cmx4LXNlbGYjanVtYmY9YzJwYS5hc3NlcnRpb25zL2MycGEuaW5ncmVkaWVudC52M2RoYXNoWCAGCRplq3zmLPbcaIJVDoHKlGV4XGYDpVLKVBq59gMvV6JjdXJseCpzZWxmI2p1bWJmPWMycGEuYXNzZXJ0aW9ucy9jMnBhLmFjdGlvbnMudjJkaGFzaFgg+lkhKttZg76AQFRuqlv4iYJTgrhfZD3CtG4g3ImOmymiY3VybHgpc2VsZiNqdW1iZj1jMnBhLmFzc2VydGlvbnMvYzJwYS5oYXNoLmRhdGFkaGFzaFggZtrvYHnU9wk0uNZMItiWt0IyGVfrfBEE9soRMdakyM50Y2xhaW1fZ2VuZXJhdG9yX2luZm+jZG5hbWVvQW50aHJvcGljIEZpbGVzZ3ZlcnNpb25lMS4wLjBrc3BlY1ZlcnNpb25lMi40LjAAABA4anVtYgAAAChqdW1kYzJjcwARABCAAACqADibcQNjMnBhLnNpZ25hdHVyZQAAABAIY2JvctKEWQISogEmGCFZAgowggIGMIIBjaADAgECAhRA5aAK7sI50L64g/oGQgU9Z1UTADAKBggqhkjOPQQDAzBJMRcwFQYDVQQKEw5BbnRocm9waWMsIFBCQzEuMCwGA1UEAxMlQW50aHJvcGljIENvbnRlbnQgQ3JlZGVudGlhbHMgUm9vdCBDQTAeFw0yNjA4MDcxODQzNTZaFw0yODA4MDYxOTQzNTZaMEQxFzAVBgNVBAoTDkFudGhyb3BpYywgUEJDMSkwJwYDVQQDEyBBbnRocm9waWMgQ2xhdWRlIENvbnRlbnQgU2lnbmluZzBZMBMGByqGSM49AgEGCCqGSM49AwEHA0IABJh6CmvLUBgFFNU0vUKlOVtE6djd17L5SuwX0LemFisBM3dkd/3cyjxFA3Qo5S46fX0/ihY0VZ7mfb9KF703t5OjWDBWMA4GA1UdDwEB/wQEAwIHgDAVBgNVHSUEDjAMBgorBgEEAYPoXgIBMAwGA1UdEwEB/wQCMAAwHwYDVR0jBBgwFoAUzlHiBIFOZFsj+OPEz5o+nMHXXMIwCgYIKoZIzj0EAwMDZwAwZAIwMXMdFJ4BetLLVY7ORuE9noqbbAZOZn/aArXyTwFAZfKrPzxF2vPoJNf1+UCdg1XGAjBwX1zd9WGqYkqmL5SFqw1QySjr1zJfpJM9+1rdDwSPLMOPOjKuiXjoU/pUUeG9RwmhY3BhZFkNngAAAAAAAAAAAAAAAAAAAAAAAAAAAAAAAAAAAAAAAAAAAAAAAAAAAAAAAAAAAAAAAAAAAAAAAAAAAAAAAAAAAAAAAAAAAAAAAAAAAAAAAAAAAAAAAAAAAAAAAAAAAAAAAAAAAAAAAAAAAAAAAAAAAAAAAAAAAAAAAAAAAAAAAAAAAAAAAAAAAAAAAAAAAAAAAAAAAAAAAAAAAAAAAAAAAAAAAAAAAAAAAAAAAAAAAAAAAAAAAAAAAAAAAAAAAAAAAAAAAAAAAAAAAAAAAAAAAAAAAAAAAAAAAAAAAAAAAAAAAAAAAAAAAAAAAAAAAAAAAAAAAAAAAAAAAAAAAAAAAAAAAAAAAAAAAAAAAAAAAAAAAAAAAAAAAAAAAAAAAAAAAAAAAAAAAAAAAAAAAAAAAAAAAAAAAAAAAAAAAAAAAAAAAAAAAAAAAAAAAAAAAAAAAAAAAAAAAAAAAAAAAAAAAAAAAAAAAAAAAAAAAAAAAAAAAAAAAAAAAAAAAAAAAAAAAAAAAAAAAAAAAAAAAAAAAAAAAAAAAAAAAAAAAAAAAAAAAAAAAAAAAAAAAAAAAAAAAAAAAAAAAAAAAAAAAAAAAAAAAAAAAAAAAAAAAAAAAAAAAAAAAAAAAAAAAAAAAAAAAAAAAAAAAAAAAAAAAAAAAAAAAAAAAAAAAAAAAAAAAAAAAAAAAAAAAAAAAAAAAAAAAAAAAAAAAAAAAAAAAAAAAAAAAAAAAAAAAAAAAAAAAAAAAAAAAAAAAAAAAAAAAAAAAAAAAAAAAAAAAAAAAAAAAAAAAAAAAAAAAAAAAAAAAAAAAAAAAAAAAAAAAAAAAAAAAAAAAAAAAAAAAAAAAAAAAAAAAAAAAAAAAAAAAAAAAAAAAAAAAAAAAAAAAAAAAAAAAAAAAAAAAAAAAAAAAAAAAAAAAAAAAAAAAAAAAAAAAAAAAAAAAAAAAAAAAAAAAAAAAAAAAAAAAAAAAAAAAAAAAAAAAAAAAAAAAAAAAAAAAAAAAAAAAAAAAAAAAAAAAAAAAAAAAAAAAAAAAAAAAAAAAAAAAAAAAAAAAAAAAAAAAAAAAAAAAAAAAAAAAAAAAAAAAAAAAAAAAAAAAAAAAAAAAAAAAAAAAAAAAAAAAAAAAAAAAAAAAAAAAAAAAAAAAAAAAAAAAAAAAAAAAAAAAAAAAAAAAAAAAAAAAAAAAAAAAAAAAAAAAAAAAAAAAAAAAAAAAAAAAAAAAAAAAAAAAAAAAAAAAAAAAAAAAAAAAAAAAAAAAAAAAAAAAAAAAAAAAAAAAAAAAAAAAAAAAAAAAAAAAAAAAAAAAAAAAAAAAAAAAAAAAAAAAAAAAAAAAAAAAAAAAAAAAAAAAAAAAAAAAAAAAAAAAAAAAAAAAAAAAAAAAAAAAAAAAAAAAAAAAAAAAAAAAAAAAAAAAAAAAAAAAAAAAAAAAAAAAAAAAAAAAAAAAAAAAAAAAAAAAAAAAAAAAAAAAAAAAAAAAAAAAAAAAAAAAAAAAAAAAAAAAAAAAAAAAAAAAAAAAAAAAAAAAAAAAAAAAAAAAAAAAAAAAAAAAAAAAAAAAAAAAAAAAAAAAAAAAAAAAAAAAAAAAAAAAAAAAAAAAAAAAAAAAAAAAAAAAAAAAAAAAAAAAAAAAAAAAAAAAAAAAAAAAAAAAAAAAAAAAAAAAAAAAAAAAAAAAAAAAAAAAAAAAAAAAAAAAAAAAAAAAAAAAAAAAAAAAAAAAAAAAAAAAAAAAAAAAAAAAAAAAAAAAAAAAAAAAAAAAAAAAAAAAAAAAAAAAAAAAAAAAAAAAAAAAAAAAAAAAAAAAAAAAAAAAAAAAAAAAAAAAAAAAAAAAAAAAAAAAAAAAAAAAAAAAAAAAAAAAAAAAAAAAAAAAAAAAAAAAAAAAAAAAAAAAAAAAAAAAAAAAAAAAAAAAAAAAAAAAAAAAAAAAAAAAAAAAAAAAAAAAAAAAAAAAAAAAAAAAAAAAAAAAAAAAAAAAAAAAAAAAAAAAAAAAAAAAAAAAAAAAAAAAAAAAAAAAAAAAAAAAAAAAAAAAAAAAAAAAAAAAAAAAAAAAAAAAAAAAAAAAAAAAAAAAAAAAAAAAAAAAAAAAAAAAAAAAAAAAAAAAAAAAAAAAAAAAAAAAAAAAAAAAAAAAAAAAAAAAAAAAAAAAAAAAAAAAAAAAAAAAAAAAAAAAAAAAAAAAAAAAAAAAAAAAAAAAAAAAAAAAAAAAAAAAAAAAAAAAAAAAAAAAAAAAAAAAAAAAAAAAAAAAAAAAAAAAAAAAAAAAAAAAAAAAAAAAAAAAAAAAAAAAAAAAAAAAAAAAAAAAAAAAAAAAAAAAAAAAAAAAAAAAAAAAAAAAAAAAAAAAAAAAAAAAAAAAAAAAAAAAAAAAAAAAAAAAAAAAAAAAAAAAAAAAAAAAAAAAAAAAAAAAAAAAAAAAAAAAAAAAAAAAAAAAAAAAAAAAAAAAAAAAAAAAAAAAAAAAAAAAAAAAAAAAAAAAAAAAAAAAAAAAAAAAAAAAAAAAAAAAAAAAAAAAAAAAAAAAAAAAAAAAAAAAAAAAAAAAAAAAAAAAAAAAAAAAAAAAAAAAAAAAAAAAAAAAAAAAAAAAAAAAAAAAAAAAAAAAAAAAAAAAAAAAAAAAAAAAAAAAAAAAAAAAAAAAAAAAAAAAAAAAAAAAAAAAAAAAAAAAAAAAAAAAAAAAAAAAAAAAAAAAAAAAAAAAAAAAAAAAAAAAAAAAAAAAAAAAAAAAAAAAAAAAAAAAAAAAAAAAAAAAAAAAAAAAAAAAAAAAAAAAAAAAAAAAAAAAAAAAAAAAAAAAAAAAAAAAAAAAAAAAAAAAAAAAAAAAAAAAAAAAAAAAAAAAAAAAAAAAAAAAAAAAAAAAAAAAAAAAAAAAAAAAAAAAAAAAAAAAAAAAAAAAAAAAAAAAAAAAAAAAAAAAAAAAAAAAAAAAAAAAAAAAAAAAAAAAAAAAAAAAAAAAAAAAAAAAAAAAAAAAAAAAAAAAAAAAAAAAAAAAAAAAAAAAAAAAAAAAAAAAAAAAAAAAAAAAAAAAAAAAAAAAAAAAAAAAAAAAAAAAAAAAAAAAAAAAAAAAAAAAAAAAAAAAAAAAAAAAAAAAAAAAAAAAAAAAAAAAAAAAAAAAAAAAAAAAAAAAAAAAAAAAAAAAAAAAAAAAAAAAAAAAAAAAAAAAAAAAAAAAAAAAAAAAAAAAAAAAAAAAAAAAAAAAAAAAAAAAAAAAAAAAAAAAAAAAAAAAAAAAAAAAAAAAAAAAAAAAAAAAAAAAAAAAAAAAAAAAAAAAAAAAAAAAAAAAAAAAAAAAAAAAAAAAAAAAAAAAAAAAAAAAAAAAAAAAAAAAAAAAAAAAAAAAAAAAAAAAAAAAAAAAAAAAAAAAAAAAAAAAAAAAAAAAAAAAAAAAAAAAAAAAAAAAAAAAAAAAAAAAAAAAAAAAAAAAAAAAAAAAAAAAAAAAAAAAAAAAAAAAAAAAAAAAAAAAAAAAAAAAAAAAAAAAAAAAAAAAAAAAAAAAAAAAAAAAAAAAAAAAAAAAAAAAAAAAAAAAAAAAAAAAAAAAAAAAAAAAAAAAAAAAAAAAAAAAAAAAAAAAAAAAAAAAAAAAAAAAAAAAAAAAAAAAAAAAAAAAAAAAAAAAAAAAAAAAAAAAAAAAAAAAAAAAAAAAAAAAAAAAAAAAAAAAAAAAAAAAAAAAAAAAAAAAAAAAAAAAAAAAAAAAAAAAAAAAAAAAAAAAAAAAAAAAAAAAAAAAAAAAAAAAAAAAAAAAAAAAAAAAAAAAAAAAAAAAAAAAAAAAAAAAAAAAAAAAAAAAAAAAAAAAAAAAAAAAAAAAAAAAAAAAAAAAAAAAAAAAAAAAAAAAAAAAAAAAAAAAAAAAAAAAAAAAAAAAAAAAAAAAAAAAAAAAAAAAAAAAAAAAAAAAAAAAAAAAAAAAAAAAAAAAAAAAAAAAAAAAAAAAAAAAAAAAAAAAAAAAAAAAAAAAAAAAAAAAAAAAAAAAAAAAAAAAAAAAAAAAAAAAAAAAAAAAAAAAAAAAAAAAAAAAAAAAAAAAAAAAAAAAAAAAAAAAAAAAAAAAAAAAAAAAAAAAAAAAAAAAAAAAAAAAAAAAAAAAAAAAAAAAAAAAAAAAAAAAAAAAAAAAAAAAAAAAAAAAAAAAAAAAAAAAAAAAAAAAAAAAAAAAAAAAAAAAAAAAAAAAAAAAAAAAAAAAAAAAAAAAAAAAAAAAAAAAAAAAAAAAAAAAAAAAAAAAAAAAAAAAAAAAAAAAAAAAAAAAAAAAAAAAAAAAAAAAAAAAAAAAAAAAAAAAAAAAAAAAAAAAAAAAAAAAAAAAAAAAAAAAAAAAAAAAAAAAAAAAAAAAAAAAAAAAAAAAAAAAAAAAAAAAAAAAAAAAAAAAAAAAAAAAAAAAAAAAAAAAAAAAAAAAAAAAAAAAAAAAAAAAAAAAAAAAAAAAAAAAAAAAAAAAAAAAAAAAAAAAAAAAAAAAAAAAAAAAAAAAAAAAAAAAAAAAAAAAAAAAAAAAAAAAAAAAAAAAAAAAAAAAAAAAAAAAAAAAAAAAAAAAAAAAAAAAAAAAAAAAAAAAAAAAAAAAAAAAAAAAAAAAAAAAAAAAAAAAAAAAAAAAAAAAAAAAAAAAAAAAAAAAAAAAAAAAAAAAAAAAAAAAAAAAAAAAAAAAAAAAAAAAAAAAPZYQNM5wjU4Pk4DGxkU6LzEY9DWqnR0OSa8vLHRXBrsyAXej4lcPNEv0iEAX34w/lQPFPvkxgXrxnS28OiTROMEA5Q=</c2pa:manifest></metadata><defs><clipPath id="sq"><path d="M1024 512L1023.96 714.65L1023.85 752.97L1023.65 778.65L1023.38 798.48L1023.03 814.85L1022.61 828.88L1022.11 841.23L1021.52 852.27L1020.86 862.29L1020.12 871.47L1019.3 879.94L1018.4 887.82L1017.41 895.17L1016.35 902.07L1015.2 908.56L1013.97 914.7L1012.65 920.51L1011.24 926.02L1009.75 931.26L1008.17 936.24L1006.49 941L1004.73 945.54L1002.87 949.88L1000.91 954.03L998.86 958L996.7 961.81L994.45 965.45L992.08 968.94L989.61 972.29L987.03 975.49L984.33 978.56L981.51 981.51L978.56 984.33L975.49 987.03L972.29 989.61L968.94 992.08L965.45 994.45L961.81 996.7L958 998.86L954.03 1000.91L949.88 1002.87L945.54 1004.73L941 1006.49L936.24 1008.17L931.26 1009.75L926.02 1011.24L920.51 1012.65L914.7 1013.97L908.56 1015.2L902.07 1016.35L895.17 1017.41L887.82 1018.4L879.94 1019.3L871.47 1020.12L862.29 1020.86L852.27 1021.52L841.23 1022.11L828.88 1022.61L814.85 1023.03L798.48 1023.38L778.65 1023.65L752.97 1023.85L714.65 1023.96L512.05 1024L309.35 1023.96L271.03 1023.85L245.35 1023.65L225.52 1023.38L209.15 1023.03L195.12 1022.61L182.77 1022.11L171.73 1021.52L161.71 1020.86L152.53 1020.12L144.06 1019.3L136.18 1018.4L128.83 1017.41L121.93 1016.35L115.44 1015.2L109.3 1013.97L103.49 1012.65L97.98 1011.24L92.74 1009.75L87.76 1008.17L83 1006.49L78.46 1004.73L74.12 1002.87L69.97 1000.91L66 998.86L62.19 996.7L58.55 994.45L55.06 992.08L51.71 989.61L48.51 987.03L45.44 984.33L42.49 981.51L39.67 978.56L36.97 975.49L34.39 972.29L31.92 968.94L29.55 965.45L27.3 961.81L25.14 958L23.09 954.03L21.13 949.88L19.27 945.54L17.51 941L15.83 936.24L14.25 931.26L12.76 926.02L11.35 920.51L10.03 914.7L8.8 908.56L7.65 902.07L6.59 895.17L5.6 887.82L4.7 879.94L3.88 871.47L3.14 862.29L2.48 852.27L1.89 841.23L1.39 828.88L0.97 814.85L0.62 798.48L0.35 778.65L0.15 752.97L0.04 714.65L0 512.05L0.04 309.35L0.15 271.03L0.35 245.35L0.62 225.52L0.97 209.15L1.39 195.12L1.89 182.77L2.48 171.73L3.14 161.71L3.88 152.53L4.7 144.06L5.6 136.18L6.59 128.83L7.65 121.93L8.8 115.44L10.03 109.3L11.35 103.49L12.76 97.98L14.25 92.74L15.83 87.76L17.51 83L19.27 78.46L21.13 74.12L23.09 69.97L25.14 66L27.3 62.19L29.55 58.55L31.92 55.06L34.39 51.71L36.97 48.51L39.67 45.44L42.49 42.49L45.44 39.67L48.51 36.97L51.71 34.39L55.06 31.92L58.55 29.55L62.19 27.3L66 25.14L69.97 23.09L74.12 21.13L78.46 19.27L83 17.51L87.76 15.83L92.74 14.25L97.98 12.76L103.49 11.35L109.3 10.03L115.44 8.8L121.93 7.65L128.83 6.59L136.18 5.6L144.06 4.7L152.53 3.88L161.71 3.14L171.73 2.48L182.77 1.89L195.12 1.39L209.15 0.97L225.52 0.62L245.35 0.35L271.03 0.15L309.35 0.04L511.94 0L714.65 0.04L752.97 0.15L778.65 0.35L798.48 0.62L814.85 0.97L828.88 1.39L841.23 1.89L852.27 2.48L862.29 3.14L871.47 3.88L879.94 4.7L887.82 5.6L895.17 6.59L902.07 7.65L908.56 8.8L914.7 10.03L920.51 11.35L926.02 12.76L931.26 14.25L936.24 15.83L941 17.51L945.54 19.27L949.88 21.13L954.03 23.09L958 25.14L961.81 27.3L965.45 29.55L968.94 31.92L972.29 34.39L975.49 36.97L978.56 39.67L981.51 42.49L984.33 45.44L987.03 48.51L989.61 51.71L992.08 55.06L994.45 58.55L996.7 62.19L998.86 66L1000.91 69.97L1002.87 74.12L1004.73 78.46L1006.49 83L1008.17 87.76L1009.75 92.74L1011.24 97.98L1012.65 103.49L1013.97 109.3L1015.2 115.44L1016.35 121.93L1017.41 128.83L1018.4 136.18L1019.3 144.06L1020.12 152.53L1020.86 161.71L1021.52 171.73L1022.11 182.77L1022.61 195.12L1023.03 209.15L1023.38 225.52L1023.65 245.35L1023.85 271.03L1023.96 309.35L1024 511.94Z"></path></clipPath></defs><g clip-path="url(#sq)"><defs><linearGradient id="bg" x1="0" y1="0" x2="0.25" y2="1"><stop offset="0" stop-color="#2C3A52"></stop><stop offset="1" stop-color="#141B28"></stop></linearGradient><radialGradient id="warm" cx="0.46" cy="0.52" r="0.52"><stop offset="0" stop-color="#FFB02E" stop-opacity="0.10"></stop><stop offset="1" stop-color="#FFB02E" stop-opacity="0"></stop></radialGradient></defs><rect width="1024" height="1024" fill="url(#bg)"></rect><rect width="1024" height="1024" fill="url(#warm)"></rect><defs><linearGradient id="cap" x1="0.1" y1="0" x2="0.9" y2="1"><stop offset="0" stop-color="#fff" stop-opacity="0.19"></stop><stop offset="1" stop-color="#fff" stop-opacity="0.055"></stop></linearGradient><filter id="cs" x="-25%" y="-25%" width="150%" height="170%"><feDropShadow dx="0" dy="20" stdDeviation="24" flood-color="#000" flood-opacity="0.35"></feDropShadow></filter></defs><g filter="url(#cs)"><rect x="202" y="182" width="620" height="620" rx="148" fill="url(#cap)"></rect></g><rect x="207" y="187" width="610" height="610" rx="143" fill="none" stroke="#fff" stroke-opacity="0.32" stroke-width="10"></rect><defs><filter id="gl" x="-35%" y="-35%" width="170%" height="170%"><feDropShadow dx="0" dy="0" stdDeviation="18" flood-color="#FFB02E" flood-opacity="0.32"></feDropShadow></filter><filter id="depth" x="-15%" y="-15%" width="130%" height="130%"><feGaussianBlur stdDeviation="3.5"></feGaussianBlur></filter></defs><path d="M618 326h159.12v55h-104.12v38.6h62v50.6h-62v89.8h-55Z" fill="#B6C4DA" opacity="0.26" filter="url(#depth)"></path><g filter="url(#gl)"><circle cx="474" cy="508" r="108" fill="#FFB02E"></circle><line x1="474" y1="362" x2="474" y2="296" stroke="#FFB02E" stroke-width="32" stroke-linecap="round"></line><line x1="577.24" y1="404.76" x2="623.91" y2="358.09" stroke="#FFB02E" stroke-width="32" stroke-linecap="round"></line><line x1="620" y1="508" x2="686" y2="508" stroke="#FFB02E" stroke-width="32" stroke-linecap="round"></line><line x1="577.24" y1="611.24" x2="623.91" y2="657.91" stroke="#FFB02E" stroke-width="32" stroke-linecap="round"></line><line x1="474" y1="654" x2="474" y2="720" stroke="#FFB02E" stroke-width="32" stroke-linecap="round"></line><line x1="370.76" y1="611.24" x2="324.09" y2="657.91" stroke="#FFB02E" stroke-width="32" stroke-linecap="round"></line><line x1="328" y1="508" x2="262" y2="508" stroke="#FFB02E" stroke-width="32" stroke-linecap="round"></line><line x1="370.76" y1="404.76" x2="324.09" y2="358.09" stroke="#FFB02E" stroke-width="32" stroke-linecap="round"></line></g><defs><linearGradient id="sp" x1="0" y1="0" x2="0" y2="1"><stop offset="0" stop-color="#fff" stop-opacity="0.5"></stop><stop offset="1" stop-color="#fff" stop-opacity="0"></stop></linearGradient><linearGradient id="sh" x1="0" y1="0" x2="1" y2="1"><stop offset="0" stop-color="#fff" stop-opacity="0.09"></stop><stop offset="0.5" stop-color="#fff" stop-opacity="0"></stop></linearGradient><clipPath id="cc"><rect x="202" y="182" width="620" height="620" rx="148"></rect></clipPath></defs><rect width="1024" height="1024" fill="url(#sh)"></rect><g clip-path="url(#cc)"><rect x="202" y="182" width="620" height="90" fill="url(#sp)"></rect></g></g></svg>